<?xml version="1.0" encoding="utf-8"?>
<!-- Generator: Adobe Illustrator 22.1.0, SVG Export Plug-In . SVG Version: 6.00 Build 0)  -->
<svg version="1.1" id="Layer_1" xmlns="http://www.w3.org/2000/svg" xmlns:xlink="http://www.w3.org/1999/xlink" x="0px" y="0px"
	 viewBox="0 0 83.3 81.2" style="enable-background:new 0 0 83.3 81.2;" xml:space="preserve">
<style type="text/css">
	.st0{fill:#FFFFFF;stroke:#082A48;stroke-width:3.3461;stroke-miterlimit:10;}
	.st1{fill:none;stroke:#082A48;stroke-width:1.824;stroke-linecap:round;stroke-linejoin:round;stroke-miterlimit:10;}
	.st2{fill:none;stroke:#082A48;stroke-width:1.673;stroke-miterlimit:10;}
	.st3{fill:#082A48;}
</style>
<g>
	<circle class="st0" cx="41.6" cy="40.6" r="36.8"/>
	<path class="st1" d="M21.3,19c0.3,0,0.6,0.1,0.9,0.2c0-2.2,1.9-4.1,4.1-4.1c1.8,0,3.4,1.2,3.9,2.9c0.5-0.3,1-0.5,1.6-0.5
		c1.6,0,2.9,1.3,2.9,2.9c0,1.6-1.3,2.9-2.9,2.9H21.3c-1.2,0-2.2-1-2.2-2.2C19.1,20,20.1,19,21.3,19z"/>
	<path class="st2" d="M67.7,68.3c-4.3,0-4.3,3.8-8.5,3.8c-4.3,0-4.3-3.8-8.5-3.8c-4.3,0-4.3,3.8-8.5,3.8c-4.3,0-4.3-3.8-8.5-3.8
		c-4.3,0-4.3,3.8-8.5,3.8c-4.3,0-4.3-3.8-8.5-3.8"/>
	<g>
		<g>
			<path class="st2" d="M33.7,60.3c-4.3,0-4.3,3.8-8.5,3.8s-4.3-3.8-8.5-3.8"/>
			<path class="st2" d="M33.7,51.3c-4.3,0-4.3,3.8-8.5,3.8s-4.3-3.8-8.5-3.8"/>
		</g>
		<g>
			<path class="st2" d="M67.7,60.3c-4.3,0-4.3,3.8-8.5,3.8s-4.3-3.8-8.5-3.8"/>
			<path class="st2" d="M67.7,51.3c-4.3,0-4.3,3.8-8.5,3.8s-4.3-3.8-8.5-3.8"/>
		</g>
	</g>
	<g>
		<polyline class="st2" points="33.7,43.3 30.9,33.8 42.2,31.3 53.5,33.8 50.6,43.3 		"/>
		<polyline class="st2" points="35,32.7 35,27.8 49.4,27.8 49.4,32.7 		"/>
		<polyline class="st2" points="32.2,37.8 42.2,35.7 52.2,37.8 		"/>
		<line class="st2" x1="42.2" y1="31.3" x2="42.2" y2="38.4"/>
		<line class="st2" x1="42.2" y1="11.6" x2="42.2" y2="27.3"/>
	</g>
	<path class="st3" d="M41.9,51.2l-0.8-0.8c0,0.7-2,2.4-2,4.9c0,4.1,2.9,6.7,2.9,8.5c0,0-3.2,1.5-3.6,2.6c0,0,2.9-1.3,4-1.3
		c1.1,0,4,1.3,4,1.3c-0.4-1.1-3.6-2.6-3.6-2.6c0-1.9,2.8-4.5,2.7-8.6c0-2.6-2.8-4.9-2.8-4.9L41.9,51.2z M44.3,53.7l-0.7,0.6l0.7,0.6
		l-0.4,0.3l-0.7-0.6l-0.7,0.6l-0.4-0.3l0.7-0.6l-0.7-0.6l0.4-0.3l0.7,0.6l0.7-0.6L44.3,53.7z"/>
	<path class="st2" d="M78,46.9c-0.6,0.2-1.2,0.3-2,0.3c-4.3,0-4.3-3.8-8.5-3.8c-4.3,0-4.3,3.8-8.5,3.8c-4.3,0-4.3-3.8-8.5-3.8
		c-4.3,0-4.3,3.8-8.5,3.8c-4.3,0-4.3-3.8-8.5-3.8c-4.3,0-4.3,3.8-8.5,3.8c-4.3,0-4.3-3.8-8.5-3.8c-4.3,0-4.3,3.8-8.5,3.8
		c-1,0-1.8-0.2-2.5-0.6"/>
</g>
</svg>
